<?xml version="1.0" encoding="UTF-8"?>
<svg id="a" data-name="Layer 1" xmlns="http://www.w3.org/2000/svg" xmlns:xlink="http://www.w3.org/1999/xlink" viewBox="0 0 685.33 235.87">
  <defs>
    <linearGradient id="b" data-name="New Gradient Swatch" x1="97.18" y1="80.02" x2="642.56" y2="78.08" gradientUnits="userSpaceOnUse">
      <stop offset="0" stop-color="#68c086"/>
      <stop offset=".14" stop-color="#5fad8c"/>
      <stop offset=".53" stop-color="#4b819b"/>
      <stop offset=".83" stop-color="#3f65a4"/>
      <stop offset="1" stop-color="#3b5ba8"/>
    </linearGradient>
    <linearGradient id="c" data-name="New Gradient Swatch" x1="97.18" y1="81.07" x2="642.56" y2="79.13" xlink:href="#b"/>
    <linearGradient id="d" data-name="New Gradient Swatch" x1="97.19" y1="81.85" x2="642.56" y2="79.91" xlink:href="#b"/>
    <linearGradient id="e" data-name="New Gradient Swatch" x1="97.19" y1="82.93" x2="642.57" y2="80.99" xlink:href="#b"/>
  </defs>
  <g>
    <path d="m569.11,7.13s-70.73-22.91-95.86,13.41V4.94h-42.44v152.25h44.7v-73.53c0-12.52,3.08-22.03,9.23-28.51,6.16-6.48,13.66-9.72,22.51-9.72,3.24,0,6.42.22,9.56.65,3.13.44,6.21.97,9.23,1.62l7.86,2.49s9.45-26.16,35.19-43.06Z" fill="url(#b)" stroke-width="0"/>
    <polygon points="205.05 4.94 176.22 102.44 145.77 4.94 106.57 4.94 76.12 102.44 47.94 4.94 0 4.94 52.48 157.19 96.21 157.19 126.66 61.95 156.14 157.19 199.87 157.19 252.67 4.94 205.05 4.94" fill="url(#c)" stroke-width="0"/>
    <path d="m340.88,124.68c-19.08-.82-34.9-14.01-39.84-32.05l110.03-.3c2.09-3.66,3.1-7.19,4.16-11.84,1.06-4.64,1.58-8.92,1.56-12.8-.06-12.96-3.35-24.44-9.87-34.46-6.53-10.01-15.58-17.8-27.16-23.36-11.58-5.56-25.04-8.31-40.37-8.24-15.12.07-28.71,3.37-40.77,9.9-12.07,6.53-21.63,15.76-28.71,27.67-3.52,5.92-6.15,12.38-7.9,19.37h-18.9l-11.87,33.28h28.76c1.34,12.91,5.07,24.05,11.27,33.35,7.83,11.74,18.23,20.54,31.22,26.42,12.98,5.88,27.36,8.78,43.12,8.71,12.31-.05,23.91-1.78,34.8-5.18,10.89-3.4,30.15-13.04,39.41-19.57l1.24-39.46c-6.89,4.57-21.99,22.43-56.21,27.89-8.52.86-16.6.98-23.98.66Zm-29.45-75.63c3.22-4.11,7.36-7.32,12.43-9.61,5.06-2.29,10.73-3.45,16.99-3.48,6.91-.03,12.58.97,17.02,3,4.43,2.03,7.74,4.83,9.92,8.38,1.94,3.17,2.97,6.94,3.2,11.23h-64.6c1.19-3.51,2.84-6.7,5.04-9.51Z" fill="url(#d)" stroke-width="0"/>
    <path d="m669.4,107.46s-20.57,9.24-27.05,11.18c-6.48,1.94-13.18,2.92-20.08,2.92-7.56,0-14.2-1.62-19.92-4.86-5.72-3.24-10.15-7.88-13.28-13.93-3.13-6.04-4.7-13.28-4.7-21.7s1.56-15.71,4.7-21.87c3.13-6.15,7.56-10.79,13.28-13.93,5.72-3.13,12.36-4.7,19.92-4.7,6.91,0,13.61.97,20.08,2.91,6.48,1.94,13.28,5.08,20.41,9.39l15.55-33.69c-8.21-5.83-16.9-10.2-26.08-13.12-9.18-2.91-19.17-4.37-29.96-4.37-12.5,0-23.92,1.98-34.29,5.9l.02-.02s-5.64,1.77-13.1,6.32c-.54.32-1.06.66-1.59,1-.13.09-.27.17-.4.26-9.73,6.22-17.59,14.24-23.52,24.11-3.93,6.55-6.74,13.75-8.5,21.54-.12.53-.24,1.06-.35,1.59-.19.95-.38,1.91-.54,2.88-.14.81-.26,1.65-.38,2.48-.11.82-.23,1.63-.32,2.46-.11,1.02-.19,2.08-.28,3.13-.06.74-.13,1.47-.17,2.21,0,.07-.01.14-.02.21h.01c-.09,1.73-.15,3.49-.15,5.28,0,15.77,3.56,29.64,10.69,41.63,7.13,11.98,17,21.27,29.64,27.86,12.63,6.59,27.05,9.88,43.25,9.88,10.79,0,20.78-1.46,29.96-4.37,9.18-2.92,24.89-10.79,33.1-16.62-7.35-16.19-9.78-18.39-15.92-31.97Z" fill="url(#e)" stroke-width="0"/>
  </g>
  <g>
    <path d="m226.86,216.31c-.03.18-.05.42-.05.72,0,.6.17,1.03.52,1.29.35.26.93.38,1.74.38h2.98l-.95,5.33h-4.02c-4.52,0-6.77-1.88-6.77-5.65,0-.72.06-1.43.18-2.12l2.12-12.06h-2.98l.9-5.19h3.03l1.08-6.19h6.37l-1.08,6.19h5.56l-.9,5.19h-5.6l-2.12,12.1Z" fill="#0f3152" stroke-width="0"/>
    <path d="m241.56,204.7c1.34-1.96,2.97-3.46,4.9-4.52,1.93-1.05,3.96-1.58,6.1-1.58,1.87,0,3.44.38,4.72,1.13s2.22,1.7,2.82,2.84l.63-3.57h6.37l-4.43,25.02h-6.37l.68-3.66c-.99,1.17-2.28,2.15-3.86,2.91-1.58.77-3.3,1.15-5.17,1.15s-3.46-.41-4.88-1.24c-1.42-.83-2.51-2-3.3-3.52-.78-1.52-1.17-3.29-1.17-5.31,0-.93.09-1.91.27-2.94.45-2.53,1.35-4.77,2.69-6.73Zm17.14,5.1c0-1.78-.52-3.16-1.56-4.16-1.04-.99-2.34-1.49-3.91-1.49-1.17,0-2.31.29-3.41.86-1.1.57-2.06,1.41-2.87,2.51-.81,1.1-1.35,2.4-1.63,3.91-.09.57-.14,1.11-.14,1.63,0,1.81.51,3.23,1.54,4.27,1.02,1.04,2.32,1.56,3.88,1.56,1.17,0,2.32-.29,3.43-.88,1.11-.59,2.07-1.44,2.87-2.55.8-1.11,1.33-2.42,1.6-3.93.12-.78.18-1.35.18-1.72Z" fill="#0f3152" stroke-width="0"/>
    <path d="m283.76,190.61l-5.92,33.42h-6.37l5.92-33.42h6.37Z" fill="#0f3152" stroke-width="0"/>
    <path d="m309.69,201.25c1.87,1.76,2.8,4.13,2.8,7.11,0,.96-.08,1.82-.23,2.57-.18.9-.38,1.69-.59,2.35h-18.29c-.03.21-.04.51-.04.9,0,1.57.46,2.79,1.38,3.68.92.89,2.13,1.33,3.64,1.33,1.26,0,2.36-.28,3.27-.83.92-.56,1.66-1.29,2.24-2.19h6.82c-1.11,2.41-2.84,4.39-5.17,5.94-2.33,1.55-4.98,2.33-7.93,2.33-3.19,0-5.75-.9-7.68-2.71-1.93-1.81-2.89-4.26-2.89-7.36,0-.9.09-1.85.27-2.85.45-2.59,1.38-4.86,2.78-6.82,1.4-1.96,3.14-3.46,5.22-4.52,2.08-1.05,4.35-1.58,6.82-1.58,3.19,0,5.72.88,7.59,2.64Zm-3.61,7.16c0-1.45-.47-2.57-1.4-3.39-.93-.81-2.15-1.22-3.66-1.22-1.6,0-3.03.5-4.29,1.51-1.26,1.01-2.15,2.39-2.66,4.13h11.92c.06-.48.09-.83.09-1.04Z" fill="#0f3152" stroke-width="0"/>
    <path d="m342.5,200.75c1.49,1.4,2.24,3.4,2.24,5.98,0,.96-.08,1.84-.23,2.62l-2.62,14.68h-6.28l2.44-13.82c.09-.54.14-1.07.14-1.58,0-1.5-.4-2.65-1.2-3.43s-1.93-1.17-3.41-1.17c-1.69,0-3.12.5-4.31,1.51-1.19,1.01-1.98,2.46-2.37,4.36l-2.48,14.14h-6.37l4.43-25.02h6.37l-.54,3.07c1.02-1.05,2.24-1.89,3.66-2.51,1.42-.62,2.89-.93,4.43-.93,2.59,0,4.63.7,6.12,2.1Z" fill="#0f3152" stroke-width="0"/>
    <path d="m360.18,216.31c-.03.18-.04.42-.04.72,0,.6.17,1.03.52,1.29.35.26.93.38,1.74.38h2.98l-.95,5.33h-4.02c-4.52,0-6.78-1.88-6.78-5.65,0-.72.06-1.43.18-2.12l2.12-12.06h-2.98l.9-5.19h3.03l1.08-6.19h6.37l-1.08,6.19h5.56l-.9,5.19h-5.6l-2.12,12.1Z" fill="#0f3152" stroke-width="0"/>
    <path d="m411.12,201.25c1.87,1.76,2.8,4.13,2.8,7.11,0,.96-.08,1.82-.23,2.57-.18.9-.38,1.69-.59,2.35h-18.29c-.03.21-.04.51-.04.9,0,1.57.46,2.79,1.38,3.68.92.89,2.13,1.33,3.64,1.33,1.26,0,2.36-.28,3.27-.83.92-.56,1.66-1.29,2.24-2.19h6.82c-1.11,2.41-2.84,4.39-5.17,5.94-2.33,1.55-4.98,2.33-7.93,2.33-3.19,0-5.75-.9-7.68-2.71s-2.89-4.26-2.89-7.36c0-.9.09-1.85.27-2.85.45-2.59,1.38-4.86,2.78-6.82s3.14-3.46,5.22-4.52c2.08-1.05,4.35-1.58,6.82-1.58,3.19,0,5.72.88,7.59,2.64Zm-3.61,7.16c0-1.45-.47-2.57-1.4-3.39-.93-.81-2.15-1.22-3.66-1.22-1.6,0-3.03.5-4.29,1.51-1.26,1.01-2.15,2.39-2.66,4.13h11.92c.06-.48.09-.83.09-1.04Z" fill="#0f3152" stroke-width="0"/>
    <path d="m430.05,218.21l9.71-19.19h6.82l-13.68,25.02h-7.77l-4.79-25.02h6.77l2.94,19.19Z" fill="#0f3152" stroke-width="0"/>
    <path d="m471.28,201.25c1.87,1.76,2.8,4.13,2.8,7.11,0,.96-.08,1.82-.23,2.57-.18.9-.38,1.69-.59,2.35h-18.29c-.03.21-.04.51-.04.9,0,1.57.46,2.79,1.38,3.68.92.89,2.13,1.33,3.64,1.33,1.26,0,2.36-.28,3.27-.83.92-.56,1.66-1.29,2.24-2.19h6.82c-1.11,2.41-2.84,4.39-5.17,5.94-2.33,1.55-4.98,2.33-7.93,2.33-3.19,0-5.75-.9-7.68-2.71s-2.89-4.26-2.89-7.36c0-.9.09-1.85.27-2.85.45-2.59,1.38-4.86,2.78-6.82s3.14-3.46,5.22-4.52c2.08-1.05,4.35-1.58,6.82-1.58,3.19,0,5.72.88,7.59,2.64Zm-3.61,7.16c0-1.45-.47-2.57-1.4-3.39-.93-.81-2.15-1.22-3.66-1.22-1.6,0-3.03.5-4.29,1.51-1.26,1.01-2.15,2.39-2.66,4.13h11.92c.06-.48.09-.83.09-1.04Z" fill="#0f3152" stroke-width="0"/>
    <path d="m493.45,199.92c1.45-.84,3.01-1.26,4.7-1.26l-1.17,6.64h-1.67c-1.87,0-3.36.41-4.49,1.22-1.13.81-1.95,2.2-2.46,4.16l-2.35,13.37h-6.37l4.43-25.02h6.37l-.77,4.43c1.08-1.5,2.35-2.68,3.79-3.52Z" fill="#0f3152" stroke-width="0"/>
    <path d="m510.03,199.01l3.34,17.48,9.71-17.48h6.73l-22,36.85h-6.73l7.59-12.46-5.74-24.39h7.09Z" fill="#0f3152" stroke-width="0"/>
    <path d="m571.41,199.01l-11.74,25.02h-6.87l-1.45-17.39-7.68,17.39h-6.87l-2.89-25.02h6.37l1.08,19.06,8.17-19.06h6.68l1.35,19.01,7.72-19.01h6.1Z" fill="#0f3152" stroke-width="0"/>
    <path d="m598.39,200.77c1.46,1.42,2.19,3.4,2.19,5.96,0,.96-.08,1.84-.23,2.62l-2.62,14.68h-6.28l2.44-13.82c.09-.54.14-1.07.14-1.58,0-1.5-.4-2.65-1.2-3.43s-1.93-1.17-3.41-1.17c-1.69,0-3.12.5-4.29,1.51-1.17,1.01-1.96,2.45-2.35,4.31l-2.53,14.18h-6.37l5.92-33.42h6.37l-2.03,11.47c1.02-1.05,2.27-1.89,3.73-2.51,1.46-.62,3-.93,4.63-.93,2.47,0,4.43.71,5.89,2.12Z" fill="#0f3152" stroke-width="0"/>
    <path d="m629.4,201.25c1.87,1.76,2.8,4.13,2.8,7.11,0,.96-.08,1.82-.23,2.57-.18.9-.38,1.69-.59,2.35h-18.29c-.03.21-.04.51-.04.9,0,1.57.46,2.79,1.38,3.68.92.89,2.13,1.33,3.64,1.33,1.26,0,2.36-.28,3.27-.83.92-.56,1.66-1.29,2.24-2.19h6.82c-1.11,2.41-2.84,4.39-5.17,5.94-2.33,1.55-4.98,2.33-7.93,2.33-3.19,0-5.75-.9-7.68-2.71s-2.89-4.26-2.89-7.36c0-.9.09-1.85.27-2.85.45-2.59,1.38-4.86,2.78-6.82s3.14-3.46,5.22-4.52c2.08-1.05,4.35-1.58,6.82-1.58,3.19,0,5.72.88,7.59,2.64Zm-3.61,7.16c0-1.45-.47-2.57-1.4-3.39-.93-.81-2.15-1.22-3.66-1.22-1.6,0-3.03.5-4.29,1.51-1.26,1.01-2.15,2.39-2.66,4.13h11.92c.06-.48.09-.83.09-1.04Z" fill="#0f3152" stroke-width="0"/>
    <path d="m650.67,199.92c1.45-.84,3.01-1.26,4.7-1.26l-1.17,6.64h-1.67c-1.87,0-3.36.41-4.49,1.22-1.13.81-1.95,2.2-2.46,4.16l-2.35,13.37h-6.37l4.43-25.02h6.37l-.77,4.43c1.08-1.5,2.35-2.68,3.79-3.52Z" fill="#0f3152" stroke-width="0"/>
    <path d="m680.75,201.25c1.87,1.76,2.8,4.13,2.8,7.11,0,.96-.08,1.82-.23,2.57-.18.9-.38,1.69-.59,2.35h-18.29c-.03.21-.04.51-.04.9,0,1.57.46,2.79,1.38,3.68.92.89,2.13,1.33,3.64,1.33,1.26,0,2.36-.28,3.27-.83.92-.56,1.66-1.29,2.24-2.19h6.82c-1.11,2.41-2.84,4.39-5.17,5.94-2.33,1.55-4.98,2.33-7.93,2.33-3.19,0-5.75-.9-7.68-2.71s-2.89-4.26-2.89-7.36c0-.9.09-1.85.27-2.85.45-2.59,1.38-4.86,2.78-6.82s3.14-3.46,5.22-4.52c2.08-1.05,4.35-1.58,6.82-1.58,3.19,0,5.72.88,7.59,2.64Zm-3.61,7.16c0-1.45-.47-2.57-1.4-3.39-.93-.81-2.15-1.22-3.66-1.22-1.6,0-3.03.5-4.29,1.51-1.26,1.01-2.15,2.39-2.66,4.13h11.92c.06-.48.09-.83.09-1.04Z" fill="#0f3152" stroke-width="0"/>
  </g>
</svg>